<svg width="41" height="41" viewBox="0 0 41 41" fill="none" xmlns="http://www.w3.org/2000/svg">
<path d="M6.25555 0.278687H0.743436C0.333357 0.278687 0 0.610539 0 1.02083V6.53579C0 6.94633 0.333357 7.27869 0.743436 7.27869H6.25555C6.66791 7.27869 7 6.94633 7 6.53579V1.02083C6.99949 0.610034 6.66791 0.278687 6.25555 0.278687Z" fill="#3B413B"/>
<path d="M6.25555 16.6952H0.743436C0.333357 16.6952 0 17.027 0 17.4373V22.9527C0 23.3629 0.333357 23.6952 0.743436 23.6952H6.25555C6.66791 23.6952 7 23.3629 7 22.9527V17.4373C6.99949 17.027 6.66791 16.6952 6.25555 16.6952Z" fill="#3B413B"/>
<path d="M6.25555 33.6678H0.743436C0.333357 33.6678 0 33.9996 0 34.4099V39.9254C0 40.3356 0.333357 40.6678 0.743436 40.6678H6.25555C6.66791 40.6678 7 40.3356 7 39.9254V34.4099C6.99949 33.9996 6.66791 33.6678 6.25555 33.6678Z" fill="#3B413B"/>
<path d="M22.7663 -0.00012207H17.2533C16.8432 -0.00012207 16.5099 0.332188 16.5099 0.742417V6.25734C16.5099 6.66757 16.8432 6.99988 17.2533 6.99988H22.7663C23.1763 6.99988 23.5099 6.66757 23.5099 6.25734V0.741912C23.5089 0.331683 23.1763 -0.00012207 22.7663 -0.00012207Z" fill="#3B413B"/>
<path d="M22.7663 16.417H17.2533C16.8432 16.417 16.5099 16.7496 16.5099 17.1598V22.6745C16.5099 23.0847 16.8432 23.417 17.2533 23.417H22.7663C23.1763 23.417 23.5099 23.0847 23.5099 22.6745V17.1598C23.5089 16.7496 23.1763 16.417 22.7663 16.417Z" fill="#3B413B"/>
<path d="M22.7663 33.39H17.2533C16.8432 33.39 16.5099 33.7223 16.5099 34.1325V39.6475C16.5099 40.0582 16.8432 40.39 17.2533 40.39H22.7663C23.1763 40.39 23.5099 40.0582 23.5099 39.6475V34.1325C23.5089 33.7224 23.1763 33.39 22.7663 33.39Z" fill="#3B413B"/>
<path d="M39.277 0.000854492H33.765C33.3549 0.000854492 33.0212 0.333442 33.0212 0.7437V6.25826C33.0212 6.66903 33.3549 7.00085 33.765 7.00085H39.2775C39.6876 7.00085 40.0212 6.66903 40.0212 6.25826V0.7437C40.0202 0.332683 39.6871 0.000854492 39.277 0.000854492Z" fill="#3B413B"/>
<path d="M39.277 16.4196H33.765C33.3549 16.4196 33.0212 16.7517 33.0212 17.1625V22.6774C33.0212 23.0877 33.3549 23.4196 33.765 23.4196H39.2775C39.6876 23.4196 40.0212 23.0878 40.0212 22.6774V17.1625C40.0202 16.7517 39.6871 16.4196 39.277 16.4196Z" fill="#3B413B"/>
<path d="M39.277 33.3912H33.765C33.3549 33.3912 33.0212 33.7236 33.0212 34.1342V39.6491C33.0212 40.0593 33.3549 40.3912 33.765 40.3912H39.2775C39.6876 40.3912 40.0212 40.0594 40.0212 39.6491V34.1342C40.0202 33.7237 39.6871 33.3912 39.277 33.3912Z" fill="#3B413B"/>
</svg>
